<svg id="SvgjsSvg1120" width="288" height="288" xmlns="http://www.w3.org/2000/svg" version="1.1" xmlns:xlink="http://www.w3.org/1999/xlink" xmlns:svgjs="http://svgjs.com/svgjs"><defs id="SvgjsDefs1121"></defs><g id="SvgjsG1122"><svg xmlns="http://www.w3.org/2000/svg" data-name="Layer 1" viewBox="0 0 100 100" width="288" height="288"><path fill="#3b82f6" d="M68,83.75a4.13,4.13,0,0,1,0-8.26h1.84l.08-1.07H68a4.13,4.13,0,0,1,0-8.26h2.54l.36-4.77A14.76,14.76,0,0,1,71,38.73V26.83H54.18v-17H5.93V90.14H64a4.3,4.3,0,0,1-.19-1.2A4.14,4.14,0,0,1,68,84.81h1.13l.09-1.06ZM38.47,20.13A14.79,14.79,0,1,1,23.68,34.91,14.8,14.8,0,0,1,38.47,20.13ZM58.88,79.88H18.06V77H58.88Zm0-11.11H18.06V65.85H58.88Zm0-11.1H18.06V54.75H58.88Z" class="color70c8f2 svgShape"></path><polygon fill="#3b82f6" points="57.1 10.96 57.1 23.9 69.93 23.9 57.1 10.96" class="color70c8f2 svgShape"></polygon><path fill="#ffffff" d="M26.61,34.91A11.86,11.86,0,1,0,38.47,23.05,11.87,11.87,0,0,0,26.61,34.91ZM35.18,39a2.88,2.88,0,0,0,3.1,2.58A2.89,2.89,0,0,0,41.39,39a2.89,2.89,0,0,0-3.11-2.57v0A5.55,5.55,0,0,1,33,31.14,5.46,5.46,0,0,1,37.47,26V24.39h2.92V26a5.41,5.41,0,0,1,4.3,5.12H41.76a2.68,2.68,0,0,0-2.9-2.39A2.68,2.68,0,0,0,36,31.14a2.69,2.69,0,0,0,2.9,2.4v0A5.74,5.74,0,0,1,44.32,39a5.55,5.55,0,0,1-3.93,5.15v1.26H37.47v-1A5.72,5.72,0,0,1,32.25,39Z" class="colorfecb37 svgShape"></path><path fill="#316ac7" d="M38.47,49.7A14.79,14.79,0,1,0,23.68,34.91,14.81,14.81,0,0,0,38.47,49.7ZM50.33,34.91A11.86,11.86,0,1,1,38.47,23.05,11.87,11.87,0,0,1,50.33,34.91Z" class="color333 svgShape"></path><path fill="#316ac7" d="M37.47,44.48v1h2.92V44.18A5.55,5.55,0,0,0,44.32,39a5.74,5.74,0,0,0-5.46-5.47v0a2.69,2.69,0,0,1-2.9-2.4,2.68,2.68,0,0,1,2.9-2.39,2.68,2.68,0,0,1,2.9,2.39h2.93A5.41,5.41,0,0,0,40.39,26V24.39H37.47V26A5.46,5.46,0,0,0,33,31.14a5.55,5.55,0,0,0,5.25,5.3v0A2.89,2.89,0,0,1,41.39,39a2.89,2.89,0,0,1-3.11,2.58A2.88,2.88,0,0,1,35.18,39H32.25A5.72,5.72,0,0,0,37.47,44.48Zm1.46-17.19Z" class="color333 svgShape"></path><rect width="40.83" height="2.93" x="18.06" y="54.75" fill="#ffffff" class="colorfff svgShape"></rect><rect width="40.83" height="2.93" x="18.06" y="65.85" fill="#ffffff" class="colorfff svgShape"></rect><rect width="40.83" height="2.93" x="18.06" y="76.95" fill="#ffffff" class="colorfff svgShape"></rect><path fill="#ffffff" d="M68.56,50.13A11.86,11.86,0,1,0,80.41,38.27,11.86,11.86,0,0,0,68.56,50.13Zm8.56,4.12a3.16,3.16,0,0,0,6.21,0,2.88,2.88,0,0,0-3.1-2.57v0A5.54,5.54,0,0,1,75,46.36a5.45,5.45,0,0,1,4.43-5.16V39.6h2.93v1.63a5.43,5.43,0,0,1,4.29,5.13H83.7a3,3,0,0,0-5.8,0,2.68,2.68,0,0,0,2.9,2.39v0a5.74,5.74,0,0,1,5.46,5.47,5.56,5.56,0,0,1-3.92,5.15v1.26H79.41v-1a5.72,5.72,0,0,1-5.22-5.45Z" class="colorfecb37 svgShape"></path><path fill="#316ac7" d="M79.41,59.7v1h2.93V59.4a5.56,5.56,0,0,0,3.92-5.15,5.74,5.74,0,0,0-5.46-5.47v0a2.68,2.68,0,0,1-2.9-2.39,3,3,0,0,1,5.8,0h2.93a5.43,5.43,0,0,0-4.29-5.13V39.6H79.41v1.6A5.45,5.45,0,0,0,75,46.36a5.54,5.54,0,0,0,5.25,5.3v0a2.88,2.88,0,0,1,3.1,2.57,3.16,3.16,0,0,1-6.21,0H74.19A5.72,5.72,0,0,0,79.41,59.7Z" class="color333 svgShape"></path><path fill="#ffffff" d="M68,87.74a1.2,1.2,0,1,0,0,2.4H92.87a1.2,1.2,0,0,0,0-2.4Z" class="colorfecb37 svgShape"></path><path fill="#316ac7" d="M63.83,88.94a4.3,4.3,0,0,0,.19,1.2H5.93V9.86H54.18v17H71v11.9a15.1,15.1,0,1,0,2.93-1.87V23.79L57.23,6.93H3V93.07H92.87a4.13,4.13,0,0,0,0-8.26H68A4.14,4.14,0,0,0,63.83,88.94Zm30.24,0a1.2,1.2,0,0,1-1.2,1.2H68a1.2,1.2,0,1,1,0-2.4H92.87A1.2,1.2,0,0,1,94.07,88.94Zm-37-78L69.93,23.9H57.1ZM92.27,50.13A11.86,11.86,0,1,1,80.41,38.27,11.87,11.87,0,0,1,92.27,50.13Z" class="color333 svgShape"></path><path fill="#ffffff" d="M68,78.42a1.2,1.2,0,0,0,0,2.4H92.87a1.2,1.2,0,0,0,0-2.4Z" class="colorfecb37 svgShape"></path><path fill="#316ac7" d="M63.83,79.62A4.14,4.14,0,0,0,68,83.75H92.87a4.13,4.13,0,0,0,0-8.26H68A4.13,4.13,0,0,0,63.83,79.62Zm30.24,0a1.2,1.2,0,0,1-1.2,1.2H68a1.2,1.2,0,0,1,0-2.4H92.87A1.2,1.2,0,0,1,94.07,79.62Z" class="color333 svgShape"></path><path fill="#ffffff" d="M68,69.09a1.2,1.2,0,0,0,0,2.4H92.87a1.2,1.2,0,0,0,0-2.4Z" class="colorfecb37 svgShape"></path><path fill="#316ac7" d="M63.83,70.29A4.13,4.13,0,0,0,68,74.42H92.87a4.13,4.13,0,0,0,0-8.26H68A4.14,4.14,0,0,0,63.83,70.29Zm30.24,0a1.2,1.2,0,0,1-1.2,1.2H68a1.2,1.2,0,0,1,0-2.4H92.87A1.2,1.2,0,0,1,94.07,70.29Z" class="color333 svgShape"></path></svg></g></svg>